<svg version="1.1" xmlns="http://www.w3.org/2000/svg" xmlns:xlink="http://www.w3.org/1999/xlink" width="48" height="48"><defs><linearGradient x1="11.08449" y1="15.78105" x2="64.95812" y2="60.26158" gradientUnits="userSpaceOnUse" id="color-1"><stop offset="0" stop-color="#000000" stop-opacity="0.3"></stop><stop offset="1" stop-color="#000000" stop-opacity="0"></stop></linearGradient><filter id="dropshadow-base"><feColorMatrix type="matrix" values="0 0 0 0 0  0 0 0 0 0  0 0 0 0 0  0 0 0 .8 0"></feColorMatrix> <feOffset dx="0" dy="1"></feOffset> <feGaussianBlur stdDeviation="1"></feGaussianBlur> <feComposite in="SourceGraphic"></feComposite></filter><filter id="dropshadow-banner" x="-10%" y="-10%" width="120%" height="130%"><feColorMatrix type="matrix" values="0 0 0 0 0  0 0 0 0 0  0 0 0 0 0  0 0 0 .4 0"></feColorMatrix> <feOffset dx="0" dy="1"></feOffset> <feGaussianBlur stdDeviation="0.5"></feGaussianBlur> <feComposite in="SourceGraphic"></feComposite></filter></defs><g fill="none" fill-rule="nonzero" stroke="none" stroke-width="none" stroke-linecap="butt" stroke-linejoin="miter" stroke-miterlimit="10" stroke-dasharray="" stroke-dashoffset="0" font-family="none" font-weight="none" font-size="none" text-anchor="none" style="mix-blend-mode: normal"><path d="M2,24c0,-12.15026 9.84974,-22 22,-22c12.15026,0 22,9.84974 22,22c0,12.15026 -9.84974,22 -22,22c-12.15026,0 -22,-9.84974 -22,-22z" id="base 1 5" fill="#7289da" stroke-width="1"></path><path d="M31.17482,16.80778l13.81184,13.81184c-2.72825,8.65788 -10.66607,15.00472 -20.13724,15.36428l-13.76494,-13.76494l2.93535,0l-2.93535,-2.93535c0,-2.73574 5.47735,-4.10948 8.21897,-4.10948c0.28529,0 0.60021,0.01488 0.93549,0.04461l-3.42539,-3.42539c-0.6377,-0.6377 -1.0325,-1.5183 -1.0325,-2.4899c0,-1.94319 1.57921,-3.52241 3.52241,-3.52241c0.96866,0 1.84396,0.39242 2.47827,1.02673l3.5549,3.5549c-0.10555,-0.3344 -0.16249,-0.69025 -0.16249,-1.05922c0,-1.94319 1.57921,-3.52241 3.52241,-3.52241c0.96866,0 1.84396,0.39242 2.47827,1.02673z" fill="url(#color-1)" stroke-width="1"></path><path d="M28.69655,22.82586c1.9432,0 3.51067,-1.57921 3.51067,-3.52241c0,-1.9432 -1.56747,-3.52241 -3.51067,-3.52241c-1.9432,0 -3.52241,1.57921 -3.52241,3.52241c0,1.9432 1.57921,3.52241 3.52241,3.52241zM19.30345,22.82586c1.9432,0 3.51067,-1.57921 3.51067,-3.52241c0,-1.9432 -1.56747,-3.52241 -3.51067,-3.52241c-1.9432,0 -3.52241,1.57921 -3.52241,3.52241c0,1.9432 1.57921,3.52241 3.52241,3.52241zM19.30345,25.17414c-2.74161,0 -8.21896,1.37374 -8.21896,4.10948v2.93534h16.43792v-2.93534c0,-2.73574 -5.47735,-4.10948 -8.21896,-4.10948zM28.69655,25.17414c-0.3405,0 -0.72209,0.02348 -1.13304,0.06458c1.362,0.9804 2.30718,2.30131 2.30718,4.0449v2.93534h7.04482v-2.93534c0,-2.73574 -5.47735,-4.10948 -8.21896,-4.10948z" fill="none" stroke-width="0"></path><path d="M25.17414,19.30345c0,-1.9432 1.57921,-3.52241 3.52241,-3.52241c1.9432,0 3.51067,1.57921 3.51067,3.52241c0,1.9432 -1.56747,3.52241 -3.51067,3.52241c-1.9432,0 -3.52241,-1.57921 -3.52241,-3.52241zM15.78104,19.30345c0,-1.9432 1.57921,-3.52241 3.52241,-3.52241c1.9432,0 3.51067,1.57921 3.51067,3.52241c0,1.9432 -1.56747,3.52241 -3.51067,3.52241c-1.9432,0 -3.52241,-1.57921 -3.52241,-3.52241zM27.52241,29.28362v2.93534h-16.43792v-2.93534c0,-2.73574 5.47735,-4.10948 8.21896,-4.10948c2.74161,0 8.21896,1.37374 8.21896,4.10948zM36.91551,29.28362v2.93534h-7.04482v-2.93534c0,-1.74359 -0.94518,-3.0645 -2.30718,-4.0449c0.41095,-0.04109 0.79254,-0.06458 1.13304,-0.06458c2.74161,0 8.21896,1.37374 8.21896,4.10948z" fill="#ffffff" stroke-width="0"></path><path d="M2,24c0,-12.15026 9.84974,-22 22,-22c12.15026,0 22,9.84974 22,22c0,12.15026 -9.84974,22 -22,22c-12.15026,0 -22,-9.84974 -22,-22z" id="base 1 1 1" fill="none" stroke-width="1"></path><g fill="#000000" stroke-width="1" font-family="Roboto, sans-serif" font-weight="400" font-size="14" text-anchor="start"></g><rect x="2" y="2" width="44" height="22" fill="none" stroke-width="1"></rect><path d="M2,24v-22h44v22z" fill="none" stroke-width="1"></path><path d="M2,24v-22h44v22z" fill="none" stroke-width="1"></path><path d="M2,24v-22h44v22z" fill="none" stroke-width="1"></path><path d="M2,24v-22h44v22z" fill="none" stroke-width="1"></path></g></svg>